<?xml version="1.0" encoding="UTF-8"?>
<svg xmlns="http://www.w3.org/2000/svg" xmlns:xlink="http://www.w3.org/1999/xlink" viewBox="0 0 70 70" width="70px" height="70px">
<g id="surface97698">
<path style="fill-rule:nonzero;fill:rgb(100%,23.921569%,0%);fill-opacity:1;stroke-width:5;stroke-linecap:butt;stroke-linejoin:round;stroke:rgb(0%,0%,0%);stroke-opacity:1;stroke-miterlimit:10;" d="M 146.917061 94.956358 C 146.917061 127.562637 120.403476 154.086098 87.787322 154.086098 C 79.196327 154.086098 71.306437 152.288901 64.137401 149.069747 L 68.798262 139.392535 C 74.535466 141.900711 81.339139 143.332543 88.152686 143.332543 C 114.310782 143.332543 136.163506 121.479819 136.163506 94.956358 C 136.163506 79.907306 129.004344 66.290087 118.25079 57.333728 L 118.25079 97.109044 L 100.338073 79.196327 L 100.338073 53.74921 L 80.262796 96.753555 L 100.338073 96.753555 L 100.338073 89.584518 L 118.25079 107.497235 L 100.338073 121.835308 L 100.338073 114.666271 L 72.027291 114.666271 L 53.74921 154.086098 L 32.251975 154.086098 L 86 46.580173 C 60.197393 47.656516 39.421011 68.798262 39.421011 94.956358 C 39.421011 102.125395 40.852844 108.929067 43.716509 115.021761 L 37.979304 126.851659 C 32.251975 117.529936 28.667457 106.786256 28.667457 94.956358 C 28.667457 62.350079 55.181042 35.836493 87.787322 35.836493 C 88.863665 35.836493 90.295497 35.836493 91.37184 35.836493 L 100.338073 17.913902 L 118.25079 17.913902 L 118.25079 44.437362 C 135.452528 54.825553 146.917061 73.459123 146.917061 94.956358 Z M 118.25079 116.818957 L 118.25079 129.004344 L 102.846248 129.004344 Z M 118.25079 116.818957 " transform="matrix(0.395581,0,0,0.395581,0.98,0.98)"/>
<path style=" stroke:none;fill-rule:nonzero;fill:rgb(100%,23.921569%,0%);fill-opacity:1;" d="M 59.097656 38.542969 C 59.097656 51.441406 48.609375 61.933594 35.707031 61.933594 C 32.308594 61.933594 29.1875 61.222656 26.351562 59.949219 L 28.195312 56.121094 C 30.464844 57.113281 33.15625 57.679688 35.851562 57.679688 C 46.199219 57.679688 54.84375 49.035156 54.84375 38.542969 C 54.84375 32.589844 52.011719 27.203125 47.757812 23.660156 L 47.757812 39.394531 L 40.671875 32.308594 L 40.671875 22.242188 L 32.730469 39.253906 L 40.671875 39.253906 L 40.671875 36.417969 L 47.757812 43.503906 L 40.671875 49.175781 L 40.671875 46.339844 L 29.472656 46.339844 L 22.242188 61.933594 L 13.738281 61.933594 L 35 19.40625 C 24.792969 19.832031 16.574219 28.195312 16.574219 38.542969 C 16.574219 41.378906 17.140625 44.070312 18.273438 46.480469 L 16.003906 51.160156 C 13.738281 47.472656 12.320312 43.222656 12.320312 38.542969 C 12.320312 25.644531 22.808594 15.15625 35.707031 15.15625 C 36.132812 15.15625 36.699219 15.15625 37.125 15.15625 L 40.671875 8.066406 L 47.757812 8.066406 L 47.757812 18.558594 C 54.5625 22.667969 59.097656 30.039062 59.097656 38.542969 Z M 41.664062 52.011719 L 47.757812 52.011719 L 47.757812 47.191406 Z M 41.664062 52.011719 "/>
</g>
</svg>
