<?xml version="1.0" encoding="UTF-8"?>
<svg xmlns="http://www.w3.org/2000/svg" xmlns:xlink="http://www.w3.org/1999/xlink" viewBox="0 0 70 70" width="70px" height="70px">
<g id="surface108359">
<path style="fill-rule:nonzero;fill:rgb(63.921571%,9.803922%,9.803922%);fill-opacity:1;stroke-width:3;stroke-linecap:butt;stroke-linejoin:round;stroke:rgb(0%,0%,0%);stroke-opacity:1;stroke-miterlimit:10;" d="M 123.562902 146.293974 C 135.924387 153.841705 146.918883 164.836201 146.918883 164.836201 L 17.914193 164.836201 C 17.914193 164.836201 28.908689 153.841705 41.270174 146.293974 C 44.521655 144.31184 46.581902 140.835782 46.581902 137.017978 L 46.581902 93.166929 L 118.251174 93.166929 L 118.251174 137.017978 C 118.251174 140.835782 120.311422 144.31184 123.562902 146.293974 Z M 123.562902 146.293974 " transform="matrix(0.400058,0,0,0.400058,0.595,0.595)"/>
<path style="fill-rule:nonzero;fill:rgb(25.882354%,25.882354%,25.882354%);fill-opacity:1;stroke-width:3;stroke-linecap:butt;stroke-linejoin:round;stroke:rgb(0%,0%,0%);stroke-opacity:1;stroke-miterlimit:10;" d="M 123.484788 146.235388 C 110.762028 151.283483 96.926148 154.08581 82.416538 154.08581 C 67.906928 154.08581 54.071048 151.283483 41.348288 146.235388 C 44.541183 144.233726 46.581902 140.786961 46.581902 137.027742 L 46.581902 133.834847 C 57.830267 137.67218 69.879298 139.751956 82.416538 139.751956 C 94.953779 139.751956 107.002809 137.67218 118.251174 133.834847 L 118.251174 137.027742 C 118.251174 140.786961 120.291893 144.233726 123.484788 146.235388 Z M 123.484788 146.235388 " transform="matrix(0.400058,0,0,0.400058,0.595,0.595)"/>
<path style="fill-rule:nonzero;fill:rgb(63.921571%,9.803922%,9.803922%);fill-opacity:1;stroke-width:3;stroke-linecap:butt;stroke-linejoin:round;stroke:rgb(0%,0%,0%);stroke-opacity:1;stroke-miterlimit:10;" d="M 118.251174 74.351304 C 118.251174 74.351304 115.761302 64.49922 125.359516 64.49922 C 129.001565 64.49922 132.585028 68.082684 132.585028 78.833075 C 132.585028 89.583465 123.592195 100.333856 118.251174 100.333856 Z M 46.288976 100.333856 C 40.947955 100.333856 31.955122 89.583465 31.955122 78.833075 C 31.955122 68.082684 35.538585 64.49922 39.180634 64.49922 C 48.778849 64.49922 46.288976 74.351304 46.288976 74.351304 Z M 46.288976 100.333856 " transform="matrix(0.400058,0,0,0.400058,0.595,0.595)"/>
<path style="fill-rule:nonzero;fill:rgb(77.64706%,15.686275%,15.686275%);fill-opacity:1;stroke-width:3;stroke-linecap:butt;stroke-linejoin:round;stroke:rgb(0%,0%,0%);stroke-opacity:1;stroke-miterlimit:10;" d="M 125.418101 42.998439 C 125.418101 56.297287 125.418101 116.952535 125.418101 116.952535 C 125.418101 120.057552 124.080405 123.006342 121.74676 125.047061 L 114.66771 131.237568 L 99.796825 144.253255 C 97.834219 145.971755 95.315054 146.918883 92.708011 146.918883 L 72.125065 146.918883 C 69.518022 146.918883 67.008621 145.971755 65.046016 144.253255 L 50.165366 131.237568 L 43.086316 125.047061 C 40.752671 123.006342 39.414975 120.057552 39.414975 116.952535 C 39.414975 116.952535 39.414975 56.297287 39.414975 42.998439 C 39.414975 42.998439 40.459745 7.163803 82.416538 7.163803 C 124.373331 7.163803 125.418101 42.998439 125.418101 42.998439 Z M 125.418101 42.998439 " transform="matrix(0.400058,0,0,0.400058,0.595,0.595)"/>
<path style="fill-rule:nonzero;fill:rgb(71.764708%,10.980392%,10.980392%);fill-opacity:1;stroke-width:3;stroke-linecap:butt;stroke-linejoin:round;stroke:rgb(0%,0%,0%);stroke-opacity:1;stroke-miterlimit:10;" d="M 57.332293 42.998439 L 57.332293 111.084247 L 57.322529 137.496424 L 50.165366 131.21804 L 43.066788 125.056826 C 40.742907 123.016107 39.414975 120.038024 39.414975 116.962299 C 39.414975 116.962299 39.414975 56.297287 39.414975 42.998439 C 39.414975 42.998439 39.991063 23.323564 57.332293 13.149261 Z M 107.500783 13.149261 C 124.851777 23.323564 125.418101 42.998439 125.418101 42.998439 C 125.418101 56.297287 125.418101 116.962299 125.418101 116.962299 C 125.418101 120.038024 124.090169 123.016107 121.766288 125.056826 L 114.66771 131.21804 L 107.510547 137.496424 L 107.500783 111.084247 Z M 107.500783 13.149261 " transform="matrix(0.400058,0,0,0.400058,0.595,0.595)"/>
<path style="fill-rule:nonzero;fill:rgb(25.882354%,25.882354%,25.882354%);fill-opacity:1;stroke-width:3;stroke-linecap:butt;stroke-linejoin:round;stroke:rgb(0%,0%,0%);stroke-opacity:1;stroke-miterlimit:10;" d="M 93.166929 50.165366 C 93.166929 50.165366 105.196431 42.998439 107.500783 42.998439 C 109.805136 42.998439 118.251174 70.211281 118.251174 75.249611 C 118.251174 82.816871 112.109488 111.084247 107.500783 111.084247 C 102.892078 111.084247 86.000002 87.454868 86.000002 82.416538 C 86.000002 74.849278 93.166929 50.165366 93.166929 50.165366 Z M 78.833075 82.416538 C 78.833075 87.454868 61.940998 111.084247 57.332293 111.084247 C 52.723588 111.084247 46.581902 82.816871 46.581902 75.249611 C 46.581902 70.211281 55.02794 42.998439 57.332293 42.998439 C 59.636646 42.998439 71.666147 50.165366 71.666147 50.165366 C 71.666147 50.165366 78.833075 74.849278 78.833075 82.416538 Z M 78.833075 82.416538 " transform="matrix(0.400058,0,0,0.400058,0.595,0.595)"/>
<path style="fill-rule:nonzero;fill:rgb(12.941177%,12.941177%,12.941177%);fill-opacity:1;stroke-width:3;stroke-linecap:butt;stroke-linejoin:round;stroke:rgb(0%,0%,0%);stroke-opacity:1;stroke-miterlimit:10;" d="M 107.500783 42.998439 C 109.805136 42.998439 118.251174 70.211281 118.251174 75.249611 C 118.251174 82.816871 112.109488 111.084247 107.500783 111.084247 Z M 57.332293 111.084247 C 52.723588 111.084247 46.581902 82.816871 46.581902 75.249611 C 46.581902 70.211281 55.02794 42.998439 57.332293 42.998439 Z M 57.332293 111.084247 " transform="matrix(0.400058,0,0,0.400058,0.595,0.595)"/>
<path style="fill-rule:nonzero;fill:rgb(93.333334%,93.333334%,93.333334%);fill-opacity:1;stroke-width:3;stroke-linecap:butt;stroke-linejoin:round;stroke:rgb(0%,0%,0%);stroke-opacity:1;stroke-miterlimit:10;" d="M 103.91732 71.666147 C 109.853957 71.666147 111.084247 74.468474 111.084247 76.440844 C 111.084247 76.841176 106.270493 78.833075 100.333856 78.833075 C 94.397219 78.833075 89.583465 78.833075 89.583465 78.833075 C 89.583465 78.833075 97.980682 71.666147 103.91732 71.666147 Z M 75.249611 78.833075 C 75.249611 78.833075 70.435857 78.833075 64.49922 78.833075 C 58.562583 78.833075 53.748829 76.841176 53.748829 76.440844 C 53.748829 74.468474 54.979119 71.666147 60.915757 71.666147 C 66.852394 71.666147 75.249611 78.833075 75.249611 78.833075 Z M 75.249611 78.833075 " transform="matrix(0.400058,0,0,0.400058,0.595,0.595)"/>
<path style=" stroke:none;fill-rule:nonzero;fill:rgb(63.921571%,9.803922%,9.803922%);fill-opacity:1;" d="M 47.902344 55.410156 L 47.902344 37.867188 L 19.230469 37.867188 L 19.230469 55.410156 C 19.230469 56.9375 18.40625 58.328125 17.105469 59.121094 C 12.160156 62.140625 7.761719 66.539062 7.761719 66.539062 L 59.371094 66.539062 C 59.371094 66.539062 54.972656 62.140625 50.027344 59.121094 C 48.726562 58.328125 47.902344 56.9375 47.902344 55.410156 Z M 47.902344 55.410156 "/>
<path style=" stroke:none;fill-rule:nonzero;fill:rgb(25.882354%,25.882354%,25.882354%);fill-opacity:1;" d="M 49.996094 59.097656 C 44.90625 61.117188 39.371094 62.238281 33.566406 62.238281 C 27.761719 62.238281 22.226562 61.117188 17.136719 59.097656 C 18.414062 58.296875 19.230469 56.917969 19.230469 55.414062 L 19.230469 54.136719 C 23.730469 55.671875 28.550781 56.503906 33.566406 56.503906 C 38.582031 56.503906 43.402344 55.671875 47.902344 54.136719 L 47.902344 55.414062 C 47.902344 56.917969 48.71875 58.296875 49.996094 59.097656 Z M 49.996094 59.097656 "/>
<path style=" stroke:none;fill-rule:nonzero;fill:rgb(63.921571%,9.803922%,9.803922%);fill-opacity:1;" d="M 47.902344 30.339844 C 47.902344 30.339844 46.90625 26.398438 50.746094 26.398438 C 52.203125 26.398438 53.636719 27.832031 53.636719 32.132812 C 53.636719 36.433594 50.039062 40.734375 47.902344 40.734375 Z M 19.113281 30.339844 C 19.113281 30.339844 20.109375 26.398438 16.269531 26.398438 C 14.8125 26.398438 13.378906 27.832031 13.378906 32.132812 C 13.378906 36.433594 16.976562 40.734375 19.113281 40.734375 Z M 19.113281 30.339844 "/>
<path style=" stroke:none;fill-rule:nonzero;fill:rgb(77.64706%,15.686275%,15.686275%);fill-opacity:1;" d="M 33.566406 3.460938 C 16.78125 3.460938 16.363281 17.796875 16.363281 17.796875 C 16.363281 23.117188 16.363281 47.382812 16.363281 47.382812 C 16.363281 48.625 16.898438 49.804688 17.832031 50.621094 L 20.664062 53.097656 L 26.617188 58.304688 C 27.402344 58.992188 28.40625 59.371094 29.449219 59.371094 L 37.683594 59.371094 C 38.726562 59.371094 39.734375 58.992188 40.519531 58.304688 L 46.46875 53.097656 L 49.300781 50.621094 C 50.234375 49.804688 50.769531 48.625 50.769531 47.382812 C 50.769531 47.382812 50.769531 23.117188 50.769531 17.796875 C 50.769531 17.796875 50.351562 3.460938 33.566406 3.460938 Z M 33.566406 3.460938 "/>
<path style=" stroke:none;fill-rule:nonzero;fill:rgb(71.764708%,10.980392%,10.980392%);fill-opacity:1;" d="M 23.53125 17.796875 L 23.53125 45.035156 L 23.527344 55.601562 L 20.664062 53.089844 L 17.824219 50.625 C 16.894531 49.808594 16.363281 48.617188 16.363281 47.386719 C 16.363281 47.386719 16.363281 23.117188 16.363281 17.796875 C 16.363281 17.796875 16.59375 9.925781 23.53125 5.855469 Z M 43.601562 17.796875 L 43.601562 45.035156 L 43.605469 55.601562 L 46.46875 53.089844 L 49.308594 50.625 C 50.238281 49.808594 50.769531 48.617188 50.769531 47.386719 C 50.769531 47.386719 50.769531 23.117188 50.769531 17.796875 C 50.769531 17.796875 50.542969 9.925781 43.601562 5.855469 Z M 43.601562 17.796875 "/>
<path style=" stroke:none;fill-rule:nonzero;fill:rgb(25.882354%,25.882354%,25.882354%);fill-opacity:1;" d="M 37.867188 20.664062 C 37.867188 20.664062 42.679688 17.796875 43.601562 17.796875 C 44.523438 17.796875 47.902344 28.683594 47.902344 30.699219 C 47.902344 33.726562 45.445312 45.035156 43.601562 45.035156 C 41.757812 45.035156 35 35.582031 35 33.566406 C 35 30.539062 37.867188 20.664062 37.867188 20.664062 Z M 29.265625 20.664062 C 29.265625 20.664062 24.453125 17.796875 23.53125 17.796875 C 22.609375 17.796875 19.230469 28.683594 19.230469 30.699219 C 19.230469 33.726562 21.6875 45.035156 23.53125 45.035156 C 25.375 45.035156 32.132812 35.582031 32.132812 33.566406 C 32.132812 30.539062 29.265625 20.664062 29.265625 20.664062 Z M 29.265625 20.664062 "/>
<path style=" stroke:none;fill-rule:nonzero;fill:rgb(12.941177%,12.941177%,12.941177%);fill-opacity:1;" d="M 43.601562 17.796875 C 44.523438 17.796875 47.902344 28.683594 47.902344 30.699219 C 47.902344 33.726562 45.445312 45.035156 43.601562 45.035156 Z M 23.53125 17.796875 C 22.609375 17.796875 19.230469 28.683594 19.230469 30.699219 C 19.230469 33.726562 21.6875 45.035156 23.53125 45.035156 Z M 23.53125 17.796875 "/>
<path style=" stroke:none;fill-rule:nonzero;fill:rgb(93.333334%,93.333334%,93.333334%);fill-opacity:1;" d="M 36.433594 32.132812 C 36.433594 32.132812 38.359375 32.132812 40.734375 32.132812 C 43.109375 32.132812 45.035156 31.335938 45.035156 31.175781 C 45.035156 30.386719 44.542969 29.265625 42.167969 29.265625 C 39.792969 29.265625 36.433594 32.132812 36.433594 32.132812 Z M 30.699219 32.132812 C 30.699219 32.132812 28.773438 32.132812 26.398438 32.132812 C 24.023438 32.132812 22.097656 31.335938 22.097656 31.175781 C 22.097656 30.386719 22.589844 29.265625 24.964844 29.265625 C 27.339844 29.265625 30.699219 32.132812 30.699219 32.132812 Z M 30.699219 32.132812 "/>
</g>
</svg>
