<?xml version="1.0" encoding="UTF-8"?>
<svg xmlns="http://www.w3.org/2000/svg" xmlns:xlink="http://www.w3.org/1999/xlink" viewBox="0 0 70 70" width="70px" height="70px">
<g id="surface524283">
<path style="fill-rule:nonzero;fill:rgb(63.921571%,63.921571%,80.392158%);fill-opacity:1;stroke-width:5;stroke-linecap:butt;stroke-linejoin:round;stroke:rgb(0%,0%,0%);stroke-opacity:1;stroke-miterlimit:10;" d="M 35.372382 91.075599 C 30.069665 91.826076 29.832672 86.296241 30.296783 84.80516 C 30.760894 83.31408 28.450213 77.191762 28.677331 75.40444 C 28.914324 73.607244 29.605554 68.679765 29.368561 64.502765 C 29.141442 60.315889 34.463909 58.232326 37.920056 61.066367 C 41.386078 63.900408 42.995655 69.578364 42.995655 69.578364 C 42.995655 69.578364 40.694849 90.325121 35.372382 91.075599 Z M 35.372382 91.075599 " transform="matrix(0.395581,0,0,0.395581,0.98,0.98)"/>
<path style="fill-rule:nonzero;fill:rgb(41.960785%,41.568628%,68.627453%);fill-opacity:1;stroke-width:5;stroke-linecap:butt;stroke-linejoin:round;stroke:rgb(0%,0%,0%);stroke-opacity:1;stroke-miterlimit:10;" d="M 33.970174 63.604166 C 33.970174 63.604166 37.692938 64.344769 40.052993 72.116163 C 39.075397 79.581441 38.482914 75.40444 38.482914 75.40444 C 38.482914 75.40444 36.12286 65.391488 33.970174 63.604166 Z M 33.970174 63.604166 " transform="matrix(0.395581,0,0,0.395581,0.98,0.98)"/>
<path style="fill-rule:nonzero;fill:rgb(41.960785%,41.568628%,68.627453%);fill-opacity:1;stroke-width:5;stroke-linecap:butt;stroke-linejoin:round;stroke:rgb(0%,0%,0%);stroke-opacity:1;stroke-miterlimit:10;" d="M 39.361763 75.848802 L 38.087926 86 C 38.087926 86 33.377691 78.830963 33.377691 75.246445 C 33.377691 71.661927 38.087926 68.087283 38.087926 68.087283 Z M 39.361763 75.848802 " transform="matrix(0.395581,0,0,0.395581,0.98,0.98)"/>
<path style="fill-rule:nonzero;fill:rgb(63.921571%,63.921571%,80.392158%);fill-opacity:1;stroke-width:5;stroke-linecap:butt;stroke-linejoin:round;stroke:rgb(0%,0%,0%);stroke-opacity:1;stroke-miterlimit:10;" d="M 129.004344 69.578364 C 129.004344 69.578364 130.613922 63.900408 134.079943 61.066367 C 137.536091 58.232326 142.848682 60.315889 142.621564 64.502765 C 142.394446 68.679765 143.085675 73.607244 143.312794 75.40444 C 143.539912 77.191762 141.239105 83.31408 141.703216 84.80516 C 142.157453 86.296241 141.930335 91.826076 136.617743 91.075599 C 131.305151 90.325121 129.004344 69.578364 129.004344 69.578364 Z M 129.004344 69.578364 " transform="matrix(0.395581,0,0,0.395581,0.98,0.98)"/>
<path style="fill-rule:nonzero;fill:rgb(41.960785%,41.568628%,68.627453%);fill-opacity:1;stroke-width:5;stroke-linecap:butt;stroke-linejoin:round;stroke:rgb(0%,0%,0%);stroke-opacity:1;stroke-miterlimit:10;" d="M 133.50721 75.40444 C 133.50721 75.40444 132.924603 79.581441 131.937132 72.116163 C 134.297187 64.344769 138.029826 63.604166 138.029826 63.604166 C 135.87714 65.391488 133.50721 75.40444 133.50721 75.40444 Z M 133.50721 75.40444 " transform="matrix(0.395581,0,0,0.395581,0.98,0.98)"/>
<path style="fill-rule:nonzero;fill:rgb(41.960785%,41.568628%,68.627453%);fill-opacity:1;stroke-width:5;stroke-linecap:butt;stroke-linejoin:round;stroke:rgb(0%,0%,0%);stroke-opacity:1;stroke-miterlimit:10;" d="M 133.912073 68.087283 C 133.912073 68.087283 138.622308 71.661927 138.622308 75.246445 C 138.622308 78.830963 133.912073 86 133.912073 86 L 132.638236 75.848802 Z M 133.912073 68.087283 " transform="matrix(0.395581,0,0,0.395581,0.98,0.98)"/>
<path style="fill-rule:nonzero;fill:rgb(63.921571%,63.921571%,80.392158%);fill-opacity:1;stroke-width:5;stroke-linecap:butt;stroke-linejoin:round;stroke:rgb(0%,0%,0%);stroke-opacity:1;stroke-miterlimit:10;" d="M 108.632826 164.829778 L 63.159805 164.829778 C 55.42791 164.829778 48.584739 159.813427 46.254308 152.437022 L 36.725217 122.289544 C 36.132734 120.403476 35.875992 118.438409 35.974739 116.473343 L 39.421011 42.995655 C 39.421011 25.082938 57.333728 7.170222 86.602357 7.170222 C 111.081753 7.170222 132.578988 21.49842 132.578988 42.995655 L 136.02526 114.192285 C 136.124008 116.088229 135.887015 117.984173 135.343906 119.801118 L 125.627195 152.190154 C 123.375762 159.694931 116.473343 164.829778 108.632826 164.829778 Z M 108.632826 164.829778 " transform="matrix(0.395581,0,0,0.395581,0.98,0.98)"/>
<path style="fill-rule:nonzero;fill:rgb(54.11765%,54.11765%,75.686276%);fill-opacity:1;stroke-width:5;stroke-linecap:butt;stroke-linejoin:round;stroke:rgb(0%,0%,0%);stroke-opacity:1;stroke-miterlimit:10;" d="M 69.765983 64.167025 L 62.596946 64.167025 L 46.580173 35.836493 L 53.74921 35.836493 Z M 81.29964 59.683908 L 74.130603 59.683908 L 60.918246 35.836493 L 68.087283 35.836493 Z M 117.134948 35.836493 L 124.29411 35.836493 L 108.287211 64.167025 L 101.118175 64.167025 Z M 102.796875 35.836493 L 109.965911 35.836493 L 96.753555 59.683908 L 89.584518 59.683908 Z M 102.796875 35.836493 " transform="matrix(0.395581,0,0,0.395581,0.98,0.98)"/>
<path style="fill-rule:nonzero;fill:rgb(41.960785%,41.568628%,68.627453%);fill-opacity:1;stroke-width:5;stroke-linecap:butt;stroke-linejoin:round;stroke:rgb(0%,0%,0%);stroke-opacity:1;stroke-miterlimit:10;" d="M 91.37184 60.918246 L 94.956358 57.333728 L 112.87895 53.74921 L 127.207148 64.502765 L 123.62263 68.087283 L 105.709913 71.661927 Z M 91.37184 60.918246 " transform="matrix(0.395581,0,0,0.395581,0.98,0.98)"/>
<path style="fill-rule:nonzero;fill:rgb(41.960785%,41.568628%,68.627453%);fill-opacity:1;stroke-width:5;stroke-linecap:butt;stroke-linejoin:round;stroke:rgb(0%,0%,0%);stroke-opacity:1;stroke-miterlimit:10;" d="M 87.34296 46.283932 C 87.34296 46.283932 91.826076 55.990768 95.252599 57.629969 C 95.815458 61.105866 93.731895 59.911026 93.731895 59.911026 C 93.731895 59.911026 87.263962 57.708967 87.34296 46.283932 Z M 87.34296 46.283932 " transform="matrix(0.395581,0,0,0.395581,0.98,0.98)"/>
<path style="fill-rule:nonzero;fill:rgb(41.960785%,41.568628%,68.627453%);fill-opacity:1;stroke-width:5;stroke-linecap:butt;stroke-linejoin:round;stroke:rgb(0%,0%,0%);stroke-opacity:1;stroke-miterlimit:10;" d="M 92.19144 61.510729 C 85.81238 56.474629 78.347103 62.379703 78.347103 62.379703 C 78.347103 62.379703 77.932365 61.895842 77.033767 59.871528 C 85.210023 52.702491 94.660117 59.348168 94.660117 59.348168 Z M 92.19144 61.510729 " transform="matrix(0.395581,0,0,0.395581,0.98,0.98)"/>
<path style="fill-rule:nonzero;fill:rgb(41.960785%,41.568628%,68.627453%);fill-opacity:1;stroke-width:5;stroke-linecap:butt;stroke-linejoin:round;stroke:rgb(0%,0%,0%);stroke-opacity:1;stroke-miterlimit:10;" d="M 65.845725 71.661927 L 47.923133 68.087283 L 44.34849 64.502765 L 58.676688 53.74921 L 76.589405 57.333728 L 80.173923 60.918246 Z M 65.845725 71.661927 " transform="matrix(0.395581,0,0,0.395581,0.98,0.98)"/>
<path style="fill-rule:nonzero;fill:rgb(41.960785%,41.568628%,68.627453%);fill-opacity:1;stroke-width:5;stroke-linecap:butt;stroke-linejoin:round;stroke:rgb(0%,0%,0%);stroke-opacity:1;stroke-miterlimit:10;" d="M 77.823743 59.911026 C 77.823743 59.911026 75.74018 61.105866 76.293164 57.629969 C 79.729561 55.990768 84.212678 46.283932 84.212678 46.283932 C 84.281801 57.708967 77.823743 59.911026 77.823743 59.911026 Z M 77.823743 59.911026 " transform="matrix(0.395581,0,0,0.395581,0.98,0.98)"/>
<path style="fill-rule:nonzero;fill:rgb(14.901961%,19.607843%,21.960784%);fill-opacity:1;stroke-width:5;stroke-linecap:butt;stroke-linejoin:round;stroke:rgb(0%,0%,0%);stroke-opacity:1;stroke-miterlimit:10;" d="M 115.554995 51.764394 C 119.317258 54.884801 122.694407 58.864308 127.207148 64.502765 L 113.540555 57.037487 Z M 115.554995 51.764394 " transform="matrix(0.395581,0,0,0.395581,0.98,0.98)"/>
<path style="fill-rule:nonzero;fill:rgb(14.901961%,19.607843%,21.960784%);fill-opacity:1;stroke-width:5;stroke-linecap:butt;stroke-linejoin:round;stroke:rgb(0%,0%,0%);stroke-opacity:1;stroke-miterlimit:10;" d="M 107.892223 51.507652 C 113.491181 49.828952 117.134948 50.243689 119.218511 58.982804 L 116.157352 60.246766 L 97.642278 62.932686 L 91.095348 57.669468 C 97.030046 54.983548 101.730406 53.136978 107.892223 51.507652 Z M 107.892223 51.507652 " transform="matrix(0.395581,0,0,0.395581,0.98,0.98)"/>
<path style="fill-rule:nonzero;fill:rgb(100%,100%,100%);fill-opacity:1;stroke-width:5;stroke-linecap:butt;stroke-linejoin:round;stroke:rgb(0%,0%,0%);stroke-opacity:1;stroke-miterlimit:10;" d="M 97.533656 62.932686 C 98.669248 59.822154 101.384792 57.333728 104.96931 57.333728 L 107.497235 57.333728 C 110.785512 57.333728 115.357501 58.370572 117.431189 59.427166 C 115.574744 61.787221 112.553084 64.502765 105.630915 64.502765 C 102.480884 64.502765 100.634314 64.127526 97.533656 62.932686 Z M 97.533656 62.932686 " transform="matrix(0.395581,0,0,0.395581,0.98,0.98)"/>
<path style="fill-rule:nonzero;fill:rgb(92.156863%,63.529414%,44.705883%);fill-opacity:1;stroke-width:5;stroke-linecap:butt;stroke-linejoin:round;stroke:rgb(0%,0%,0%);stroke-opacity:1;stroke-miterlimit:10;" d="M 110.805261 57.620095 C 110.953382 58.103955 111.081753 58.597691 111.081753 59.12105 C 111.081753 62.093336 108.672325 64.502765 105.709913 64.502765 C 102.737626 64.502765 100.338073 62.093336 100.338073 59.12105 C 100.338073 59.071676 100.347948 59.032178 100.347948 58.982804 C 100.377572 58.963055 100.407196 58.923556 100.43682 58.903806 C 100.555316 58.814934 100.683688 58.745811 100.802184 58.656939 C 101.049052 58.489069 101.305794 58.331073 101.572411 58.192828 C 101.760031 58.094081 101.957525 58.005208 102.164894 57.916336 C 102.411761 57.817589 102.678378 57.728716 102.944995 57.649719 C 103.132615 57.590471 103.310359 57.541097 103.497979 57.501598 C 103.971965 57.402851 104.4657 57.333728 104.96931 57.333728 L 107.497235 57.333728 C 108.514329 57.333728 109.659795 57.452225 110.805261 57.620095 Z M 110.805261 57.620095 " transform="matrix(0.395581,0,0,0.395581,0.98,0.98)"/>
<path style="fill-rule:nonzero;fill:rgb(14.901961%,19.607843%,21.960784%);fill-opacity:1;stroke-width:5;stroke-linecap:butt;stroke-linejoin:round;stroke:rgb(0%,0%,0%);stroke-opacity:1;stroke-miterlimit:10;" d="M 107.497235 59.12105 C 107.497235 60.118395 106.697384 60.918246 105.709913 60.918246 C 104.722442 60.918246 103.912716 60.118395 103.912716 59.12105 C 103.912716 58.133579 104.722442 57.333728 105.709913 57.333728 C 106.697384 57.333728 107.497235 58.133579 107.497235 59.12105 Z M 58.173078 57.037487 L 44.51636 64.502765 C 49.0291 58.864308 52.396375 54.884801 56.168513 51.764394 Z M 58.173078 57.037487 " transform="matrix(0.395581,0,0,0.395581,0.98,0.98)"/>
<path style="fill-rule:nonzero;fill:rgb(14.901961%,19.607843%,21.960784%);fill-opacity:1;stroke-width:5;stroke-linecap:butt;stroke-linejoin:round;stroke:rgb(0%,0%,0%);stroke-opacity:1;stroke-miterlimit:10;" d="M 80.62816 57.669468 L 74.071355 62.932686 L 55.556281 60.246766 L 52.495122 58.982804 C 54.58856 50.243689 58.232326 49.828952 63.831285 51.507652 C 69.983227 53.136978 74.693461 54.983548 80.62816 57.669468 Z M 80.62816 57.669468 " transform="matrix(0.395581,0,0,0.395581,0.98,0.98)"/>
<path style="fill-rule:nonzero;fill:rgb(100%,100%,100%);fill-opacity:1;stroke-width:5;stroke-linecap:butt;stroke-linejoin:round;stroke:rgb(0%,0%,0%);stroke-opacity:1;stroke-miterlimit:10;" d="M 66.181465 64.502765 C 59.269171 64.502765 56.237636 61.787221 54.381191 59.427166 C 56.454879 58.370572 61.026868 57.333728 64.315145 57.333728 L 66.84307 57.333728 C 70.427588 57.333728 73.143133 59.822154 74.278724 62.932686 C 71.178066 64.127526 69.331496 64.502765 66.181465 64.502765 Z M 66.181465 64.502765 " transform="matrix(0.395581,0,0,0.395581,0.98,0.98)"/>
<path style="fill-rule:nonzero;fill:rgb(92.156863%,63.529414%,44.705883%);fill-opacity:1;stroke-width:5;stroke-linecap:butt;stroke-linejoin:round;stroke:rgb(0%,0%,0%);stroke-opacity:1;stroke-miterlimit:10;" d="M 64.502765 57.333728 L 67.030689 57.333728 C 67.534299 57.333728 68.028035 57.402851 68.502021 57.501598 C 68.68964 57.541097 68.867385 57.590471 69.055004 57.649719 C 69.321621 57.728716 69.588238 57.817589 69.835106 57.916336 C 70.042475 58.005208 70.239969 58.094081 70.427588 58.192828 C 70.694205 58.331073 70.950948 58.489069 71.197815 58.656939 C 71.316312 58.745811 71.444683 58.814934 71.56318 58.903806 C 71.592804 58.923556 71.622428 58.963055 71.652052 58.982804 C 71.652052 59.032178 71.661927 59.071676 71.661927 59.12105 C 71.661927 62.093336 69.262373 64.502765 66.290087 64.502765 C 63.327675 64.502765 60.918246 62.093336 60.918246 59.12105 C 60.918246 58.597691 61.046618 58.103955 61.194738 57.620095 C 62.340204 57.452225 63.48567 57.333728 64.502765 57.333728 Z M 64.502765 57.333728 " transform="matrix(0.395581,0,0,0.395581,0.98,0.98)"/>
<path style="fill-rule:nonzero;fill:rgb(14.901961%,19.607843%,21.960784%);fill-opacity:1;stroke-width:5;stroke-linecap:butt;stroke-linejoin:round;stroke:rgb(0%,0%,0%);stroke-opacity:1;stroke-miterlimit:10;" d="M 68.087283 59.12105 C 68.087283 60.118395 67.277557 60.918246 66.290087 60.918246 C 65.302616 60.918246 64.502765 60.118395 64.502765 59.12105 C 64.502765 58.133579 65.302616 57.333728 66.290087 57.333728 C 67.277557 57.333728 68.087283 58.133579 68.087283 59.12105 Z M 68.087283 59.12105 " transform="matrix(0.395581,0,0,0.395581,0.98,0.98)"/>
<path style="fill-rule:nonzero;fill:rgb(41.960785%,41.568628%,68.627453%);fill-opacity:1;stroke-width:5;stroke-linecap:butt;stroke-linejoin:round;stroke:rgb(0%,0%,0%);stroke-opacity:1;stroke-miterlimit:10;" d="M 96.753555 86 L 85.891378 89.584518 L 75.246445 86 L 75.246445 78.830963 L 85.891378 82.415481 L 96.753555 78.830963 Z M 96.753555 86 " transform="matrix(0.395581,0,0,0.395581,0.98,0.98)"/>
<path style="fill-rule:nonzero;fill:rgb(54.11765%,54.11765%,75.686276%);fill-opacity:1;stroke-width:5;stroke-linecap:butt;stroke-linejoin:round;stroke:rgb(0%,0%,0%);stroke-opacity:1;stroke-miterlimit:10;" d="M 68.087283 107.497235 L 60.918246 107.497235 L 42.995655 75.246445 L 50.164692 75.246445 Z M 82.415481 107.497235 L 75.246445 107.497235 L 57.333728 75.246445 L 64.502765 75.246445 Z M 121.835308 75.246445 L 129.004344 75.246445 L 111.081753 107.497235 L 103.912716 107.497235 Z M 107.497235 75.246445 L 114.666271 75.246445 L 96.753555 107.497235 L 89.584518 107.497235 Z M 107.497235 75.246445 " transform="matrix(0.395581,0,0,0.395581,0.98,0.98)"/>
<path style="fill-rule:nonzero;fill:rgb(41.960785%,41.568628%,68.627453%);fill-opacity:1;stroke-width:5;stroke-linecap:butt;stroke-linejoin:round;stroke:rgb(0%,0%,0%);stroke-opacity:1;stroke-miterlimit:10;" d="M 110.133781 110.953382 C 93.968888 106.519639 77.734871 106.519639 61.876093 110.953382 L 59.950525 104.050962 C 77.073266 99.26173 94.600869 99.26173 112.029725 104.041088 Z M 68.087283 78.830963 L 68.087283 86 L 52.40625 99.715966 L 49.157472 114.38978 L 48.762483 96.585685 Z M 123.237516 96.585685 L 122.842528 114.38978 L 119.59375 99.715966 L 103.912716 86 L 103.912716 78.830963 Z M 123.237516 96.585685 " transform="matrix(0.395581,0,0,0.395581,0.98,0.98)"/>
<path style="fill-rule:nonzero;fill:rgb(54.11765%,54.11765%,75.686276%);fill-opacity:1;stroke-width:5;stroke-linecap:butt;stroke-linejoin:round;stroke:rgb(0%,0%,0%);stroke-opacity:1;stroke-miterlimit:10;" d="M 38.068177 79.058081 L 42.995655 89.584518 L 46.580173 96.753555 L 46.580173 153.256622 C 46.481426 152.980131 46.34318 152.723388 46.254308 152.437022 L 36.725217 122.289544 C 36.142609 120.403476 35.875992 118.438409 35.974739 116.473343 L 37.63369 81.062647 Z M 125.419826 152.723388 L 125.419826 96.753555 L 129.004344 89.584518 L 133.931823 79.058081 L 134.435433 81.398387 L 136.02526 114.192285 C 136.124008 116.088229 135.887015 117.984173 135.343906 119.801118 L 125.627195 152.190154 C 125.567947 152.377774 125.479074 152.545644 125.419826 152.723388 Z M 125.419826 152.723388 " transform="matrix(0.395581,0,0,0.395581,0.98,0.98)"/>
<path style="fill-rule:nonzero;fill:rgb(54.11765%,54.11765%,75.686276%);fill-opacity:1;stroke-width:5;stroke-linecap:butt;stroke-linejoin:round;stroke:rgb(0%,0%,0%);stroke-opacity:1;stroke-miterlimit:10;" d="M 45.809946 151.064438 C 48.594613 154.204594 53.136978 158.480342 58.143454 159.754179 C 66.17159 161.798243 71.859421 151.311305 85.150775 151.400178 C 85.30877 151.390303 85.437142 151.400178 85.595137 151.400178 C 85.743257 151.400178 85.881503 151.390303 86.039499 151.400178 C 99.330853 151.301431 105.018684 161.798243 113.04682 159.754179 C 118.635903 158.332221 123.642379 153.16775 126.278926 150.027594 L 125.627195 152.190154 C 123.375762 159.694931 116.473343 164.829778 108.632826 164.829778 L 63.159805 164.829778 C 55.42791 164.829778 48.584739 159.813427 46.254308 152.437022 Z M 45.809946 151.064438 " transform="matrix(0.395581,0,0,0.395581,0.98,0.98)"/>
<path style="fill-rule:nonzero;fill:rgb(41.960785%,41.568628%,68.627453%);fill-opacity:1;stroke-width:5;stroke-linecap:butt;stroke-linejoin:round;stroke:rgb(0%,0%,0%);stroke-opacity:1;stroke-miterlimit:10;" d="M 82.415481 114.666271 L 89.584518 114.666271 L 89.584518 164.829778 L 82.415481 164.829778 Z M 111.081753 164.632284 L 111.081753 118.25079 L 118.25079 118.25079 L 118.25079 161.936489 C 116.107978 163.328823 113.688675 164.26692 111.081753 164.632284 Z M 96.753555 114.666271 L 103.912716 114.666271 L 103.912716 164.829778 L 96.753555 164.829778 Z M 53.74921 162.06486 L 53.74921 118.25079 L 60.918246 118.25079 L 60.918246 164.652033 C 58.321199 164.316293 55.901896 163.417695 53.74921 162.06486 Z M 68.087283 114.666271 L 75.246445 114.666271 L 75.246445 164.829778 L 68.087283 164.829778 Z M 68.087283 114.666271 " transform="matrix(0.395581,0,0,0.395581,0.98,0.98)"/>
<path style=" stroke:none;fill-rule:nonzero;fill:rgb(63.921571%,63.921571%,80.392158%);fill-opacity:1;" d="M 17.988281 28.503906 C 17.988281 28.503906 17.351562 26.257812 15.980469 25.136719 C 14.613281 24.015625 12.507812 24.839844 12.597656 26.496094 C 12.691406 28.148438 12.417969 30.097656 12.324219 30.808594 C 12.234375 31.515625 13.148438 33.9375 12.964844 34.527344 C 12.78125 35.117188 12.875 37.304688 14.972656 37.007812 C 17.078125 36.710938 17.988281 28.503906 17.988281 28.503906 Z M 17.988281 28.503906 "/>
<path style=" stroke:none;fill-rule:nonzero;fill:rgb(41.960785%,41.568628%,68.627453%);fill-opacity:1;" d="M 14.417969 26.140625 C 14.417969 26.140625 15.890625 26.433594 16.824219 29.507812 C 16.4375 32.460938 16.203125 30.808594 16.203125 30.808594 C 16.203125 30.808594 15.269531 26.847656 14.417969 26.140625 Z M 14.417969 26.140625 "/>
<path style=" stroke:none;fill-rule:nonzero;fill:rgb(41.960785%,41.568628%,68.627453%);fill-opacity:1;" d="M 16.046875 27.914062 C 16.046875 27.914062 14.183594 29.328125 14.183594 30.746094 C 14.183594 32.164062 16.046875 35 16.046875 35 L 16.550781 30.984375 Z M 16.046875 27.914062 "/>
<path style=" stroke:none;fill-rule:nonzero;fill:rgb(63.921571%,63.921571%,80.392158%);fill-opacity:1;" d="M 55.023438 37.007812 C 57.125 37.304688 57.214844 35.117188 57.035156 34.527344 C 56.851562 33.9375 57.761719 31.515625 57.671875 30.808594 C 57.582031 30.097656 57.308594 28.148438 57.398438 26.496094 C 57.488281 24.839844 55.386719 24.015625 54.019531 25.136719 C 52.648438 26.257812 52.011719 28.503906 52.011719 28.503906 C 52.011719 28.503906 52.921875 36.710938 55.023438 37.007812 Z M 55.023438 37.007812 "/>
<path style=" stroke:none;fill-rule:nonzero;fill:rgb(41.960785%,41.568628%,68.627453%);fill-opacity:1;" d="M 53.792969 30.808594 C 53.792969 30.808594 53.5625 32.460938 53.171875 29.507812 C 54.105469 26.433594 55.582031 26.140625 55.582031 26.140625 C 54.730469 26.847656 53.792969 30.808594 53.792969 30.808594 Z M 53.792969 30.808594 "/>
<path style=" stroke:none;fill-rule:nonzero;fill:rgb(41.960785%,41.568628%,68.627453%);fill-opacity:1;" d="M 53.953125 27.914062 C 53.953125 27.914062 55.816406 29.328125 55.816406 30.746094 C 55.816406 32.164062 53.953125 35 53.953125 35 L 53.449219 30.984375 Z M 53.953125 27.914062 "/>
<path style=" stroke:none;fill-rule:nonzero;fill:rgb(63.921571%,63.921571%,80.392158%);fill-opacity:1;" d="M 43.953125 66.183594 L 25.964844 66.183594 C 22.90625 66.183594 20.199219 64.199219 19.277344 61.28125 L 15.507812 49.355469 C 15.273438 48.609375 15.171875 47.832031 15.210938 47.054688 L 16.574219 17.988281 C 16.574219 10.902344 23.660156 3.816406 35.238281 3.816406 C 44.921875 3.816406 53.425781 9.484375 53.425781 17.988281 L 54.789062 46.152344 C 54.828125 46.902344 54.734375 47.652344 54.519531 48.371094 L 50.675781 61.183594 C 49.785156 64.152344 47.054688 66.183594 43.953125 66.183594 Z M 43.953125 66.183594 "/>
<path style=" stroke:none;fill-rule:nonzero;fill:rgb(54.11765%,54.11765%,75.686276%);fill-opacity:1;" d="M 28.578125 26.363281 L 25.742188 26.363281 L 19.40625 15.15625 L 22.242188 15.15625 Z M 33.140625 24.589844 L 30.304688 24.589844 L 25.078125 15.15625 L 27.914062 15.15625 Z M 40.980469 26.363281 L 43.816406 26.363281 L 50.148438 15.15625 L 47.316406 15.15625 Z M 36.417969 24.589844 L 39.253906 24.589844 L 44.480469 15.15625 L 41.644531 15.15625 Z M 36.417969 24.589844 "/>
<path style=" stroke:none;fill-rule:nonzero;fill:rgb(41.960785%,41.568628%,68.627453%);fill-opacity:1;" d="M 37.125 25.078125 L 38.542969 23.660156 L 45.632812 22.242188 L 51.300781 26.496094 L 49.882812 27.914062 L 42.796875 29.328125 Z M 37.125 25.078125 "/>
<path style=" stroke:none;fill-rule:nonzero;fill:rgb(41.960785%,41.568628%,68.627453%);fill-opacity:1;" d="M 35.53125 19.289062 C 35.53125 19.289062 37.304688 23.128906 38.660156 23.777344 C 38.882812 25.152344 38.058594 24.679688 38.058594 24.679688 C 38.058594 24.679688 35.5 23.808594 35.53125 19.289062 Z M 35.53125 19.289062 "/>
<path style=" stroke:none;fill-rule:nonzero;fill:rgb(41.960785%,41.568628%,68.627453%);fill-opacity:1;" d="M 37.449219 25.3125 C 34.925781 23.320312 31.972656 25.65625 31.972656 25.65625 C 31.972656 25.65625 31.808594 25.464844 31.453125 24.664062 C 34.6875 21.828125 38.425781 24.457031 38.425781 24.457031 Z M 37.449219 25.3125 "/>
<path style=" stroke:none;fill-rule:nonzero;fill:rgb(41.960785%,41.568628%,68.627453%);fill-opacity:1;" d="M 32.695312 25.078125 L 31.277344 23.660156 L 24.191406 22.242188 L 18.523438 26.496094 L 19.9375 27.914062 L 27.027344 29.328125 Z M 32.695312 25.078125 "/>
<path style=" stroke:none;fill-rule:nonzero;fill:rgb(41.960785%,41.568628%,68.627453%);fill-opacity:1;" d="M 34.292969 19.289062 C 34.292969 19.289062 32.519531 23.128906 31.160156 23.777344 C 30.941406 25.152344 31.765625 24.679688 31.765625 24.679688 C 31.765625 24.679688 34.320312 23.808594 34.292969 19.289062 Z M 34.292969 19.289062 "/>
<path style=" stroke:none;fill-rule:nonzero;fill:rgb(14.901961%,19.607843%,21.960784%);fill-opacity:1;" d="M 46.691406 21.457031 C 48.179688 22.691406 49.515625 24.265625 51.300781 26.496094 L 45.894531 23.542969 Z M 46.691406 21.457031 "/>
<path style=" stroke:none;fill-rule:nonzero;fill:rgb(14.901961%,19.607843%,21.960784%);fill-opacity:1;" d="M 37.015625 23.792969 L 39.605469 25.875 L 46.929688 24.8125 L 48.140625 24.3125 C 47.316406 20.855469 45.875 20.691406 43.660156 21.355469 C 41.222656 22 39.363281 22.730469 37.015625 23.792969 Z M 37.015625 23.792969 "/>
<path style=" stroke:none;fill-rule:nonzero;fill:rgb(100%,100%,100%);fill-opacity:1;" d="M 39.5625 25.875 C 40.011719 24.644531 41.085938 23.660156 42.503906 23.660156 L 43.503906 23.660156 C 44.804688 23.660156 46.613281 24.070312 47.433594 24.488281 C 46.699219 25.421875 45.503906 26.496094 42.765625 26.496094 C 41.519531 26.496094 40.789062 26.347656 39.5625 25.875 Z M 39.5625 25.875 "/>
<path style=" stroke:none;fill-rule:nonzero;fill:rgb(92.156863%,63.529414%,44.705883%);fill-opacity:1;" d="M 43.503906 23.660156 L 42.503906 23.660156 C 42.304688 23.660156 42.109375 23.6875 41.921875 23.726562 C 41.847656 23.742188 41.777344 23.761719 41.703125 23.785156 C 41.597656 23.816406 41.492188 23.851562 41.394531 23.890625 C 41.3125 23.925781 41.234375 23.960938 41.160156 24 C 41.054688 24.054688 40.953125 24.117188 40.855469 24.183594 C 40.808594 24.21875 40.757812 24.246094 40.710938 24.28125 C 40.699219 24.289062 40.6875 24.304688 40.675781 24.3125 C 40.675781 24.332031 40.671875 24.347656 40.671875 24.367188 C 40.671875 25.542969 41.621094 26.496094 42.796875 26.496094 C 43.96875 26.496094 44.921875 25.542969 44.921875 24.367188 C 44.921875 24.160156 44.871094 23.964844 44.8125 23.773438 C 44.359375 23.707031 43.90625 23.660156 43.503906 23.660156 Z M 43.503906 23.660156 "/>
<path style=" stroke:none;fill-rule:nonzero;fill:rgb(14.901961%,19.607843%,21.960784%);fill-opacity:1;" d="M 42.796875 23.660156 C 42.40625 23.660156 42.085938 23.976562 42.085938 24.367188 C 42.085938 24.761719 42.40625 25.078125 42.796875 25.078125 C 43.1875 25.078125 43.503906 24.761719 43.503906 24.367188 C 43.503906 23.976562 43.1875 23.660156 42.796875 23.660156 Z M 23.199219 21.457031 C 21.707031 22.691406 20.375 24.265625 18.589844 26.496094 L 23.992188 23.542969 Z M 23.199219 21.457031 "/>
<path style=" stroke:none;fill-rule:nonzero;fill:rgb(14.901961%,19.607843%,21.960784%);fill-opacity:1;" d="M 26.230469 21.355469 C 24.015625 20.691406 22.574219 20.855469 21.746094 24.3125 L 22.957031 24.8125 L 30.28125 25.875 L 32.875 23.792969 C 30.527344 22.730469 28.664062 22 26.230469 21.355469 Z M 26.230469 21.355469 "/>
<path style=" stroke:none;fill-rule:nonzero;fill:rgb(100%,100%,100%);fill-opacity:1;" d="M 27.160156 26.496094 C 24.425781 26.496094 23.226562 25.421875 22.492188 24.488281 C 23.3125 24.070312 25.121094 23.660156 26.421875 23.660156 L 27.421875 23.660156 C 28.839844 23.660156 29.914062 24.644531 30.363281 25.875 C 29.136719 26.347656 28.40625 26.496094 27.160156 26.496094 Z M 27.160156 26.496094 "/>
<path style=" stroke:none;fill-rule:nonzero;fill:rgb(92.156863%,63.529414%,44.705883%);fill-opacity:1;" d="M 26.496094 23.660156 L 27.496094 23.660156 C 27.695312 23.660156 27.890625 23.6875 28.078125 23.726562 C 28.152344 23.742188 28.222656 23.761719 28.296875 23.785156 C 28.402344 23.816406 28.507812 23.851562 28.605469 23.890625 C 28.6875 23.925781 28.765625 23.960938 28.839844 24 C 28.945312 24.054688 29.046875 24.117188 29.144531 24.183594 C 29.191406 24.21875 29.242188 24.246094 29.289062 24.28125 C 29.300781 24.289062 29.3125 24.304688 29.324219 24.3125 C 29.324219 24.332031 29.328125 24.347656 29.328125 24.367188 C 29.328125 25.542969 28.378906 26.496094 27.203125 26.496094 C 26.03125 26.496094 25.078125 25.542969 25.078125 24.367188 C 25.078125 24.160156 25.128906 23.964844 25.1875 23.773438 C 25.640625 23.707031 26.09375 23.660156 26.496094 23.660156 Z M 26.496094 23.660156 "/>
<path style=" stroke:none;fill-rule:nonzero;fill:rgb(14.901961%,19.607843%,21.960784%);fill-opacity:1;" d="M 27.203125 23.660156 C 26.8125 23.660156 26.496094 23.976562 26.496094 24.367188 C 26.496094 24.761719 26.8125 25.078125 27.203125 25.078125 C 27.59375 25.078125 27.914062 24.761719 27.914062 24.367188 C 27.914062 23.976562 27.59375 23.660156 27.203125 23.660156 Z M 27.203125 23.660156 "/>
<path style=" stroke:none;fill-rule:nonzero;fill:rgb(41.960785%,41.568628%,68.627453%);fill-opacity:1;" d="M 39.253906 35 L 34.957031 36.417969 L 30.746094 35 L 30.746094 32.164062 L 34.957031 33.582031 L 39.253906 32.164062 Z M 39.253906 35 "/>
<path style=" stroke:none;fill-rule:nonzero;fill:rgb(54.11765%,54.11765%,75.686276%);fill-opacity:1;" d="M 27.914062 43.503906 L 25.078125 43.503906 L 17.988281 30.746094 L 20.824219 30.746094 Z M 33.582031 43.503906 L 30.746094 43.503906 L 23.660156 30.746094 L 26.496094 30.746094 Z M 42.085938 43.503906 L 44.921875 43.503906 L 52.011719 30.746094 L 49.175781 30.746094 Z M 36.417969 43.503906 L 39.253906 43.503906 L 46.339844 30.746094 L 43.503906 30.746094 Z M 36.417969 43.503906 "/>
<path style=" stroke:none;fill-rule:nonzero;fill:rgb(41.960785%,41.568628%,68.627453%);fill-opacity:1;" d="M 25.078125 43.503906 C 31.6875 41.65625 38.308594 41.6875 44.921875 43.503906 M 44.546875 44.871094 C 38.152344 43.117188 31.730469 43.117188 25.457031 44.871094 L 24.695312 42.140625 C 31.46875 40.246094 38.402344 40.246094 45.296875 42.136719 Z M 27.914062 32.164062 L 27.914062 35 L 21.710938 40.425781 L 20.425781 46.230469 L 20.269531 39.1875 Z M 49.730469 39.1875 L 49.574219 46.230469 L 48.289062 40.425781 L 42.085938 35 L 42.085938 32.164062 Z M 49.730469 39.1875 "/>
<path style=" stroke:none;fill-rule:nonzero;fill:rgb(54.11765%,54.11765%,75.686276%);fill-opacity:1;" d="M 15.867188 33.046875 L 15.210938 47.054688 C 15.171875 47.832031 15.277344 48.609375 15.507812 49.355469 L 19.277344 61.28125 C 19.3125 61.394531 19.367188 61.496094 19.40625 61.605469 L 19.40625 39.253906 L 17.988281 36.417969 L 16.039062 32.253906 Z M 50.675781 61.183594 L 54.519531 48.371094 C 54.734375 47.652344 54.828125 46.902344 54.789062 46.152344 L 54.160156 33.179688 L 53.960938 32.253906 L 52.011719 36.417969 L 50.59375 39.253906 L 50.59375 61.394531 C 50.617188 61.324219 50.652344 61.257812 50.675781 61.183594 Z M 50.675781 61.183594 "/>
<path style=" stroke:none;fill-rule:nonzero;fill:rgb(54.11765%,54.11765%,75.686276%);fill-opacity:1;" d="M 19.277344 61.28125 C 20.199219 64.199219 22.90625 66.183594 25.964844 66.183594 L 43.953125 66.183594 C 47.054688 66.183594 49.785156 64.152344 50.675781 61.183594 L 50.933594 60.328125 C 49.890625 61.570312 47.910156 63.613281 45.699219 64.175781 C 42.523438 64.984375 40.273438 60.832031 35.015625 60.871094 C 34.953125 60.867188 34.898438 60.871094 34.839844 60.871094 C 34.777344 60.871094 34.726562 60.867188 34.664062 60.871094 C 29.40625 60.835938 27.15625 64.984375 23.980469 64.175781 C 22 63.671875 20.203125 61.980469 19.101562 60.738281 Z M 19.277344 61.28125 "/>
<path style=" stroke:none;fill-rule:nonzero;fill:rgb(41.960785%,41.568628%,68.627453%);fill-opacity:1;" d="M 33.582031 46.339844 L 36.417969 46.339844 L 36.417969 66.183594 L 33.582031 66.183594 Z M 47.757812 65.039062 L 47.757812 47.757812 L 44.921875 47.757812 L 44.921875 66.105469 C 45.953125 65.960938 46.910156 65.589844 47.757812 65.039062 Z M 39.253906 46.339844 L 42.085938 46.339844 L 42.085938 66.183594 L 39.253906 66.183594 Z M 25.078125 66.113281 L 25.078125 47.757812 L 22.242188 47.757812 L 22.242188 65.089844 C 23.09375 65.625 24.050781 65.980469 25.078125 66.113281 Z M 27.914062 46.339844 L 30.746094 46.339844 L 30.746094 66.183594 L 27.914062 66.183594 Z M 27.914062 46.339844 "/>
</g>
</svg>
