<svg version="1.2" baseProfile="tiny-ps" xmlns="http://www.w3.org/2000/svg" viewBox="0 0 600 600" width="15" height="15">
	<title>captain-america-seeklogo</title>
	<style>
		tspan { white-space:pre }
		.shp0 { fill: #aa1428 } 
		.shp1 { fill: #ffffff } 
		.shp2 { fill: #000042 } 
	</style>
	<path id="circle4" class="shp0" d="M300 525C175.57 525 75 424.43 75 300C75 175.57 175.57 75 300 75C424.43 75 525 175.57 525 300C525 424.43 424.43 525 300 525Z" />
	<path id="circle3" class="shp1" d="M300 480C200.46 480 120 399.54 120 300C120 200.46 200.46 120 300 120C399.54 120 480 200.46 480 300C480 399.54 399.54 480 300 480Z" />
	<path id="circle2" class="shp0" d="M300 435C225.34 435 165 374.65 165 300C165 225.34 225.34 165 300 165C374.65 165 435 225.34 435 300C435 374.65 374.65 435 300 435Z" />
	<path id="circle1" class="shp2" d="M300 390C250.23 390 210 349.77 210 300C210 250.23 250.23 210 300 210C349.77 210 390 250.23 390 300C390 349.77 349.77 390 300 390Z" />
	<path id="polygon" class="shp1" d="M300 210L320.12 272.31L385.6 272.19L332.55 310.57L352.9 372.81L300 334.22L247.1 372.81L267.45 310.57L214.41 272.19L279.88 272.31L300 210Z" />
</svg>